<svg xmlns="http://www.w3.org/2000/svg" width="23" height="23" viewBox="0 0 23 23">
  <path id="Icon_awesome-arrow-alt-circle-left" data-name="Icon awesome-arrow-alt-circle-left" d="M12.063,23.563a11.5,11.5,0,1,1,11.5-11.5A11.5,11.5,0,0,1,12.063,23.563Zm5.379-13.54H12.063V6.734a.557.557,0,0,0-.951-.394l-5.3,5.328a.551.551,0,0,0,0,.784l5.3,5.328a.556.556,0,0,0,.951-.394V14.1h5.379A.558.558,0,0,0,18,13.546V10.579A.558.558,0,0,0,17.442,10.022Z" transform="translate(-0.563 -0.563)" opacity="0.179"/>
</svg>
