<svg xmlns="http://www.w3.org/2000/svg" width="23" height="23" viewBox="0 0 23 23">
  <path id="Icon_awesome-arrow-alt-circle-left" data-name="Icon awesome-arrow-alt-circle-left" d="M12.063,23.563a11.5,11.5,0,1,0-11.5-11.5A11.5,11.5,0,0,0,12.063,23.563ZM6.683,10.022h5.379V6.734a.557.557,0,0,1,.951-.394l5.3,5.328a.551.551,0,0,1,0,.784l-5.3,5.328a.556.556,0,0,1-.951-.394V14.1H6.683a.558.558,0,0,1-.556-.556V10.579A.558.558,0,0,1,6.683,10.022Z" transform="translate(-0.563 -0.563)" fill="#4f9cd5"/>
</svg>
